<svg style="enable-background:new 0 0 512 512;" version="1.1" viewBox="-90 -70 560 560" width="512px" xml:space="preserve"
    xmlns="http://www.w3.org/2000/svg"
    xmlns:xlink="http://www.w3.org/1999/xlink">
    <g id="D_-_26_x2C__Puzzle_x2C__parts_x2C__strategy_x2C__teamwork">
        <g>
            <path fill="white" d="M407.555,272.497c0,28.278-23.007,51.285-51.285,51.285c-28.221,0-51.178-23.007-51.178-51.285    c0-3.993,0.46-7.945,1.371-11.812h-45.777v52.091c0,1.537-0.754,2.977-2.018,3.852c-1.262,0.875-2.874,1.077-4.313,0.536    c-4.781-1.793-9.778-2.702-14.853-2.702c-23.112,0-41.914,18.755-41.914,41.808c0,23.111,18.802,41.914,41.914,41.914    c5.146,0,10.116-0.935,14.773-2.778c0.18-0.071,0.363-0.131,0.549-0.179c0.927-0.239,1.9-0.189,2.79,0.137    c0.355,0.131,0.698,0.306,1.019,0.523c1.284,0.873,2.052,2.323,2.052,3.875v52.092H388.3c35.043,0,63.554-28.511,63.554-63.554    V260.686h-45.699C407.085,264.513,407.555,268.464,407.555,272.497z"/>
            <path fill="white" d="M188.218,356.27c0-28.221,23.007-51.178,51.285-51.178c3.993,0,7.945,0.46,11.812,1.371v-45.777h-52.09    c-1.345,0-2.614-0.576-3.498-1.567c-0.126-0.142-0.244-0.291-0.353-0.449c-0.876-1.264-1.077-2.875-0.537-4.313    c1.792-4.78,2.701-9.777,2.701-14.853c0-23.112-18.754-41.914-41.807-41.914c-23.111,0-41.914,18.802-41.914,41.914    c0,5.146,0.934,10.117,2.777,14.773c0.571,1.443,0.391,3.075-0.481,4.358c-0.763,1.124-1.969,1.852-3.299,2.016    c-0.189,0.024-0.381,0.036-0.575,0.036H60.147V388.3c0,35.043,28.51,63.554,63.553,63.554h127.614v-45.698    c-3.826,0.93-7.778,1.399-11.812,1.399C211.225,407.555,188.218,384.548,188.218,356.27z"/>
            <path fill="white" d="M104.446,239.503c0-28.278,23.006-51.285,51.285-51.285c28.22,0,51.178,23.007,51.178,51.285    c0,3.994-0.459,7.946-1.371,11.812h45.777v-53.59c0-1.662,0.88-3.198,2.313-4.04s3.203-0.861,4.654-0.053    c6.094,3.397,12.973,5.192,19.894,5.192c23.052,0,41.807-19.331,41.807-43.092c0-23.761-18.755-43.092-41.807-43.092    c-7.095,0-13.956,1.785-19.843,5.163c-1.449,0.832-3.232,0.828-4.68-0.01c-1.447-0.837-2.337-2.383-2.337-4.054V60.147H123.7    c-35.043,0-63.553,28.51-63.553,63.553v127.614h45.698C104.915,247.488,104.446,243.537,104.446,239.503z" transform="translate(-40,-40) rotate(-45 100 256)"/>
            <path fill="white" d="M388.3,60.147H260.686v46.238c5.504-2.052,11.436-3.117,17.489-3.117c28.22,0,51.178,23.534,51.178,52.463    c0,28.928-22.958,52.463-51.178,52.463c-5.962,0-11.897-1.082-17.489-3.163v46.283h52.092c1.535,0,2.976,0.754,3.85,2.017    c0.877,1.263,1.076,2.875,0.537,4.314c-1.793,4.78-2.701,9.777-2.701,14.852c0,23.111,18.754,41.914,41.807,41.914    c23.111,0,41.914-18.803,41.914-41.914c0-5.145-0.935-10.115-2.779-14.772c-0.143-0.361-0.238-0.733-0.287-1.109    c-0.15-1.128,0.115-2.286,0.77-3.249s1.634-1.635,2.738-1.912c0.367-0.092,0.749-0.14,1.137-0.14h52.092V123.7    C451.854,88.657,423.343,60.147,388.3,60.147z"/>
        </g>
    </g>
    <g id="Layer_1"/>
</svg>